<svg width="52" height="51" viewBox="0 0 52 51" fill="none" xmlns="http://www.w3.org/2000/svg">
<path d="M6.87697 0.0143667C15.2546 -0.284863 22.7276 4.16527 25.877 6.35587C29.0264 4.16527 36.4994 -0.284863 44.877 0.0143667C48.0437 1.20187 48.4395 1.99357 48.4395 1.99357C48.4395 1.99357 39.7312 4.76437 33.3978 12.681C41.7103 23.3685 53.1895 38.0144 51.6062 50.681C43.2937 36.0352 33.7509 24.9929 25.877 20.3372C18.0031 24.9929 8.46027 36.0352 0.147767 50.681C-1.43553 38.0144 10.0437 23.3685 18.3562 12.681C12.0228 4.76437 3.31447 1.99357 3.31447 1.99357C3.31447 1.99357 3.71027 1.20187 6.87697 0.0143667Z" fill="#4FC44F"/>
</svg>
